<svg xmlns="http://www.w3.org/2000/svg" viewBox="0 0 64 80" x="0px" y="0px"><path d="M7.7,43.05l-2.35,.76-2-6.12-1.9,.62,2,6.11c.16,.51,.52,.93,.99,1.17,.47,.24,1.01,.29,1.53,.12l2.35-.76c1.1,2.01,2.45,3.88,4.04,5.57l-1.45,2c-.32,.43-.45,.96-.37,1.48,.08,.53,.37,1,.8,1.32l4.85,3.52c.44,.32,.97,.45,1.5,.36,.53-.08,.99-.37,1.3-.8l1.46-1.99c2.08,1,4.28,1.71,6.54,2.13v2.47c0,1.1,.9,2,2,2h6c1.1,0,2-.9,2-2v-2.47c2.26-.42,4.46-1.14,6.55-2.14l1.44,1.99c.31,.44,.77,.72,1.3,.81,.54,.09,1.07-.04,1.5-.36l4.85-3.52c.44-.32,.72-.79,.8-1.32,.08-.53-.05-1.05-.36-1.48l-1.44-2.01c1.58-1.67,2.94-3.54,4.03-5.57l2.35,.77c.51,.16,1.05,.12,1.53-.12,.48-.25,.83-.66,.99-1.17l2-6.12-1.9-.62-2,6.13-2.35-.77c-.9-.3-1.89,.1-2.38,.95-1.01,1.86-2.27,3.59-3.73,5.14-.67,.71-.74,1.79-.17,2.55l1.45,2-4.85,3.52-1.46-2.01c-.57-.77-1.59-1.03-2.48-.62-1.93,.92-3.96,1.58-6.03,1.97-.95,.18-1.65,1-1.65,1.96v2.47h-6v-2.47c0-.96-.69-1.79-1.65-1.96-2.08-.39-4.11-1.05-6.05-1.98-.88-.4-1.9-.15-2.47,.63l-1.45,2-4.85-3.52,1.44-1.99c.58-.77,.51-1.85-.17-2.56-1.46-1.55-2.72-3.28-3.74-5.16-.48-.83-1.47-1.23-2.37-.93Z"/><path d="M32,53c9.23,0,17.28-5.91,20.03-14.7l-1.91-.6c-2.49,7.95-9.77,13.3-18.13,13.3s-15.64-5.34-18.13-13.3l-1.91,.6c2.75,8.79,10.8,14.7,20.03,14.7Z"/><rect x="1" y="34" width="62" height="2"/><path d="M59,32v-14c0-.55-.45-1-1-1h-8V2c0-.55-.45-1-1-1h-12c-.55,0-1,.45-1,1V12h-8v-4c0-.3-.13-.58-.36-.77l-6-5c-.37-.31-.91-.31-1.28,0l-6,5c-.23,.19-.36,.47-.36,.77v8H6c-.55,0-1,.45-1,1v15h2v-14h7v14h2V8.47l5-4.17,5,4.17v23.53h2V14h8v18h2V3h10v29h2v-13h7v13h2Z"/><rect x="40" y="6" width="2" height="2"/><rect x="44" y="6" width="2" height="2"/><rect x="40" y="11" width="2" height="2"/><rect x="44" y="11" width="2" height="2"/><rect x="40" y="16" width="2" height="2"/><rect x="44" y="16" width="2" height="2"/><rect x="18" y="10" width="6" height="2"/><rect x="18" y="15" width="6" height="2"/></svg>