<svg xmlns="http://www.w3.org/2000/svg" xmlns:xlink="http://www.w3.org/1999/xlink" version="1.1" width="256" height="256" viewBox="0 0 256 256" xml:space="preserve">

<defs>
</defs>
<g style="stroke: none; stroke-width: 0; stroke-dasharray: none; stroke-linecap: butt; stroke-linejoin: miter; stroke-miterlimit: 10; fill: none; fill-rule: nonzero; opacity: 1;" transform="translate(1.4065934065934016 1.4065934065934016) scale(2.81 2.81)" >
	<path d="M 27.4 30.64 c -3.17 0 -6.34 -1.491 -9.487 -4.473 c -5.458 -5.171 -10.766 -5.172 -16.225 0 c -0.4 0.379 -1.033 0.364 -1.414 -0.038 c -0.38 -0.401 -0.363 -1.034 0.038 -1.414 c 6.295 -5.963 12.68 -5.964 18.976 0 c 5.459 5.172 10.766 5.171 16.225 0 c 6.296 -5.965 12.681 -5.963 18.975 0 c 5.461 5.173 10.767 5.17 16.226 0 c 6.295 -5.964 12.68 -5.965 18.975 0 c 0.401 0.38 0.418 1.013 0.038 1.414 s -1.013 0.417 -1.413 0.038 c -5.459 -5.172 -10.766 -5.172 -16.225 0 c -6.294 5.962 -12.68 5.965 -18.976 0 c -5.459 -5.172 -10.766 -5.172 -16.224 0 C 33.74 29.149 30.57 30.64 27.4 30.64 z" style="stroke: none; stroke-width: 1; stroke-dasharray: none; stroke-linecap: butt; stroke-linejoin: miter; stroke-miterlimit: 10; fill: rgb(0,0,0); fill-rule: nonzero; opacity: 1;" transform=" matrix(1 0 0 1 0 0) " stroke-linecap="round" />
	<path d="M 27.4 43.679 c -3.17 0 -6.34 -1.491 -9.487 -4.473 c -5.458 -5.171 -10.766 -5.172 -16.225 0 c -0.4 0.379 -1.033 0.364 -1.414 -0.038 c -0.38 -0.401 -0.363 -1.034 0.038 -1.414 c 6.295 -5.963 12.68 -5.964 18.976 0 c 5.459 5.172 10.766 5.171 16.225 0 c 6.296 -5.965 12.681 -5.963 18.975 0 c 5.461 5.173 10.767 5.17 16.226 0 c 6.295 -5.964 12.68 -5.965 18.975 0 c 0.401 0.38 0.418 1.013 0.038 1.414 s -1.013 0.417 -1.413 0.038 c -5.459 -5.172 -10.766 -5.172 -16.225 0 c -6.294 5.961 -12.68 5.965 -18.976 0 c -5.459 -5.172 -10.766 -5.172 -16.224 0 C 33.74 42.188 30.57 43.679 27.4 43.679 z" style="stroke: none; stroke-width: 1; stroke-dasharray: none; stroke-linecap: butt; stroke-linejoin: miter; stroke-miterlimit: 10; fill: rgb(0,0,0); fill-rule: nonzero; opacity: 1;" transform=" matrix(1 0 0 1 0 0) " stroke-linecap="round" />
	<path d="M 27.4 56.719 c -3.17 0 -6.34 -1.491 -9.488 -4.474 c -5.458 -5.169 -10.766 -5.171 -16.225 0 c -0.4 0.381 -1.032 0.364 -1.414 -0.038 c -0.38 -0.4 -0.363 -1.033 0.039 -1.413 c 6.294 -5.965 12.68 -5.965 18.975 0 c 5.458 5.169 10.766 5.171 16.225 0 c 6.296 -5.966 12.681 -5.963 18.975 0 c 5.461 5.172 10.767 5.168 16.226 0 c 6.295 -5.965 12.68 -5.965 18.975 0 c 0.401 0.38 0.418 1.013 0.038 1.413 c -0.38 0.402 -1.013 0.418 -1.413 0.038 c -5.459 -5.17 -10.766 -5.17 -16.225 0 c -6.294 5.964 -12.68 5.966 -18.976 0 c -5.459 -5.17 -10.766 -5.17 -16.225 0 C 33.74 55.228 30.57 56.719 27.4 56.719 z" style="stroke: none; stroke-width: 1; stroke-dasharray: none; stroke-linecap: butt; stroke-linejoin: miter; stroke-miterlimit: 10; fill: rgb(0,0,0); fill-rule: nonzero; opacity: 1;" transform=" matrix(1 0 0 1 0 0) " stroke-linecap="round" />
	<path d="M 27.4 69.758 c -3.17 0 -6.34 -1.491 -9.488 -4.474 c -5.458 -5.169 -10.766 -5.171 -16.225 0 c -0.4 0.381 -1.032 0.365 -1.414 -0.038 c -0.38 -0.4 -0.363 -1.033 0.039 -1.413 c 6.294 -5.965 12.68 -5.965 18.975 0 c 5.458 5.17 10.766 5.17 16.225 0 c 6.296 -5.966 12.681 -5.964 18.975 0 c 5.461 5.172 10.767 5.168 16.226 0 c 6.295 -5.965 12.68 -5.965 18.975 0 c 0.401 0.38 0.418 1.013 0.038 1.413 c -0.38 0.402 -1.013 0.419 -1.413 0.038 c -5.459 -5.17 -10.766 -5.17 -16.225 0 c -6.294 5.964 -12.68 5.966 -18.976 0 c -5.459 -5.17 -10.766 -5.17 -16.225 0 C 33.74 68.267 30.57 69.758 27.4 69.758 z" style="stroke: none; stroke-width: 1; stroke-dasharray: none; stroke-linecap: butt; stroke-linejoin: miter; stroke-miterlimit: 10; fill: rgb(0,0,0); fill-rule: nonzero; opacity: 1;" transform=" matrix(1 0 0 1 0 0) " stroke-linecap="round" />
</g>
</svg>